<?xml version="1.0" standalone="no"?>
<!DOCTYPE svg PUBLIC "-//W3C//DTD SVG 20010904//EN"
 "http://www.w3.org/TR/2001/REC-SVG-20010904/DTD/svg10.dtd">
<svg version="1.0" xmlns="http://www.w3.org/2000/svg"
 width="4500.000000pt" height="4500.000000pt" viewBox="0 0 4500.000000 4500.000000"
 preserveAspectRatio="xMidYMid meet">

<g transform="translate(0.000000,4500.000000) scale(0.100000,-0.100000)"
fill="#000000" stroke="none">
<path d="M17865 29610 c-110 -4 -218 -13 -240 -19 -22 -6 -93 -18 -159 -27
-65 -8 -126 -18 -135 -23 -9 -5 -63 -14 -121 -20 -58 -5 -125 -17 -150 -25
-96 -32 -217 -65 -260 -70 -25 -3 -66 -14 -90 -25 -25 -11 -54 -21 -65 -21
-11 0 -30 -7 -42 -15 -12 -9 -48 -20 -80 -26 -31 -6 -66 -17 -78 -25 -11 -8
-38 -19 -59 -25 -21 -6 -45 -17 -53 -25 -8 -8 -28 -14 -45 -14 -16 0 -41 -9
-55 -20 -14 -11 -33 -20 -43 -20 -10 0 -28 -9 -42 -19 -13 -11 -38 -23 -54
-27 -33 -8 -111 -48 -134 -69 -8 -7 -28 -17 -45 -21 -16 -4 -42 -15 -57 -25
-14 -11 -30 -19 -36 -19 -5 0 -21 -11 -36 -25 -15 -14 -36 -25 -48 -25 -11 0
-31 -10 -43 -22 -24 -26 -75 -56 -122 -73 -17 -7 -49 -26 -70 -42 -21 -17 -54
-37 -74 -46 -20 -8 -52 -30 -71 -49 -19 -19 -46 -38 -60 -41 -14 -4 -44 -24
-66 -44 -22 -21 -60 -54 -83 -73 -71 -57 -343 -332 -372 -375 -14 -22 -36 -46
-47 -53 -11 -7 -20 -19 -20 -27 0 -8 -20 -37 -45 -65 -25 -28 -45 -55 -45 -61
0 -6 -10 -24 -22 -40 -58 -73 -66 -86 -72 -116 -4 -18 -12 -33 -17 -33 -11 0
-69 -90 -69 -109 0 -8 -20 -48 -44 -90 -25 -42 -48 -93 -51 -113 -4 -21 -13
-42 -21 -48 -7 -7 -18 -28 -25 -48 -7 -20 -16 -40 -22 -43 -5 -4 -13 -27 -18
-50 -4 -24 -24 -87 -44 -139 -20 -52 -41 -121 -45 -152 -4 -32 -15 -79 -24
-105 -35 -106 -58 -225 -67 -353 -5 -74 -15 -162 -21 -195 -17 -81 -17 -466 0
-570 7 -44 16 -134 21 -200 8 -118 36 -258 71 -365 10 -30 21 -77 24 -105 3
-27 14 -69 25 -92 12 -23 21 -50 21 -60 0 -10 9 -31 20 -48 11 -16 20 -42 20
-57 0 -15 20 -69 44 -120 24 -51 47 -108 51 -125 3 -18 10 -35 15 -38 11 -7
65 -104 75 -135 4 -14 25 -49 46 -79 22 -30 39 -58 39 -62 0 -14 60 -103 75
-112 8 -4 15 -17 15 -27 0 -11 20 -42 45 -70 25 -28 45 -57 45 -65 0 -8 4 -15
8 -15 5 0 26 -23 48 -50 66 -85 197 -223 307 -325 25 -24 92 -78 125 -103 13
-9 33 -27 44 -39 12 -13 27 -23 34 -23 7 0 32 -18 56 -40 23 -22 58 -44 76
-51 17 -6 32 -15 32 -20 0 -5 15 -15 33 -22 17 -8 38 -21 46 -30 7 -10 24 -17
37 -17 13 0 33 -9 45 -21 11 -11 35 -26 52 -32 18 -6 37 -16 44 -22 6 -7 29
-15 51 -19 22 -3 42 -12 45 -20 3 -7 21 -16 40 -20 19 -4 40 -13 47 -20 6 -8
43 -20 83 -26 40 -7 77 -17 84 -22 6 -5 56 -21 110 -36 l98 -26 460 -1 c406 0
465 2 500 17 22 9 66 21 97 28 64 13 109 42 93 59 -6 6 -46 17 -89 25 -43 9
-84 20 -90 25 -7 6 -45 15 -86 22 -40 6 -79 17 -86 24 -7 7 -30 16 -51 20 -21
4 -45 13 -53 20 -8 7 -42 18 -75 25 -33 7 -72 21 -87 31 -14 11 -32 19 -40 19
-7 0 -26 9 -43 20 -16 11 -42 20 -57 20 -15 0 -35 9 -45 19 -10 11 -31 23 -48
27 -16 4 -36 16 -43 26 -8 11 -26 18 -48 18 -22 0 -37 6 -41 16 -3 8 -23 22
-44 30 -20 9 -40 21 -42 28 -3 7 -19 16 -36 19 -17 4 -53 23 -80 44 -27 21
-74 53 -104 71 -31 19 -58 40 -61 48 -3 8 -13 14 -22 14 -9 0 -36 20 -61 45
-24 25 -53 45 -64 45 -11 0 -24 10 -29 23 -5 12 -21 31 -35 42 -39 30 -235
225 -235 234 0 4 -20 27 -45 50 -25 23 -45 49 -45 58 0 9 -15 31 -33 49 -19
17 -49 58 -67 91 -18 32 -43 71 -56 86 -13 16 -24 39 -24 52 0 13 -9 30 -19
37 -11 8 -23 26 -26 40 -4 15 -15 34 -26 44 -10 9 -19 30 -19 46 0 17 -9 41
-20 55 -11 14 -20 32 -20 41 0 8 -9 29 -19 46 -11 17 -25 60 -31 95 -6 35 -17
73 -25 85 -7 12 -16 38 -19 59 -4 21 -15 63 -25 95 -10 31 -21 105 -24 163 -4
59 -12 120 -19 135 -17 41 -18 575 -1 624 7 19 17 94 22 166 5 72 16 153 25
180 8 27 26 86 40 130 15 45 26 92 26 105 0 23 41 134 73 195 8 16 18 48 22
72 4 23 11 42 16 42 6 0 17 17 26 38 8 20 21 44 28 52 7 8 15 28 19 44 4 16
18 43 32 60 13 17 28 36 33 42 5 6 12 21 16 33 4 12 27 47 51 76 24 30 46 65
50 79 3 15 10 26 16 26 11 0 68 61 68 72 0 5 19 28 43 52 23 24 47 49 53 56
15 16 78 79 94 94 7 6 32 30 56 54 24 23 49 42 55 42 6 0 30 20 55 45 24 25
50 45 59 45 9 0 32 16 52 36 19 20 54 44 77 53 22 10 56 32 75 50 18 17 45 34
60 37 14 4 35 15 46 24 11 10 31 21 45 25 14 4 33 16 43 26 10 11 30 19 46 19
15 0 36 9 46 20 10 11 26 20 35 20 10 0 29 9 43 20 14 11 40 23 59 26 18 4 51
15 73 25 124 55 160 69 189 69 17 0 40 6 51 14 11 7 47 21 80 30 33 10 74 23
90 30 17 8 61 17 100 20 38 4 75 12 81 17 7 6 51 17 98 24 47 8 95 19 106 25
11 6 87 15 168 21 81 5 161 14 178 20 81 26 581 26 694 -1 25 -5 119 -15 209
-20 91 -6 169 -14 175 -19 6 -5 52 -14 101 -21 50 -7 109 -19 131 -26 23 -8
82 -18 132 -23 50 -5 99 -14 109 -19 10 -5 45 -15 78 -22 33 -8 72 -19 87 -27
15 -7 56 -16 90 -19 35 -4 72 -12 83 -18 11 -7 49 -21 85 -30 36 -10 74 -25
85 -32 11 -8 34 -14 53 -14 18 0 58 -11 88 -25 30 -14 59 -25 65 -25 5 0 27
-9 49 -20 22 -11 51 -20 66 -20 14 0 37 -9 51 -20 14 -11 32 -20 40 -20 8 0
35 -11 61 -25 26 -14 56 -25 67 -25 11 0 31 -6 45 -14 14 -7 50 -27 80 -43 30
-17 68 -33 84 -37 16 -4 41 -16 54 -27 14 -10 29 -19 34 -19 6 0 21 -9 35 -20
14 -11 32 -20 41 -20 8 0 43 -18 77 -39 34 -22 78 -47 96 -56 64 -30 90 -47
96 -61 3 -7 21 -16 40 -20 19 -4 37 -12 40 -20 2 -7 36 -32 74 -54 38 -23 86
-58 106 -76 20 -19 45 -34 55 -34 10 0 23 -9 30 -20 7 -11 31 -33 53 -48 22
-15 49 -34 60 -44 11 -9 40 -34 65 -54 61 -50 160 -136 174 -152 19 -23 43
-46 69 -67 13 -12 29 -31 36 -43 6 -12 17 -22 24 -22 16 0 61 -48 70 -72 4
-10 12 -18 20 -18 16 0 67 -51 67 -68 0 -6 16 -18 35 -26 20 -9 43 -29 53 -45
9 -17 29 -36 43 -42 15 -6 41 -28 58 -50 18 -21 37 -39 43 -39 6 0 30 -19 53
-42 53 -53 116 -107 186 -160 30 -22 58 -46 62 -54 4 -8 14 -14 22 -14 8 0 32
-18 53 -39 21 -22 55 -46 75 -55 21 -8 37 -19 37 -24 0 -10 144 -112 157 -112
5 0 14 -9 21 -20 7 -11 18 -20 26 -20 8 0 36 -17 63 -38 26 -21 74 -51 105
-66 32 -16 67 -39 79 -52 13 -14 34 -24 50 -24 18 0 32 -7 39 -19 5 -11 23
-22 39 -26 16 -3 37 -15 47 -26 9 -10 30 -19 45 -19 16 0 36 -9 46 -19 10 -11
30 -22 45 -26 14 -4 34 -15 44 -26 10 -11 30 -19 50 -19 18 0 39 -6 46 -13 7
-8 30 -19 49 -26 20 -6 53 -20 74 -31 22 -11 53 -20 70 -20 16 -1 48 -9 70
-20 22 -11 47 -19 56 -20 9 0 42 -9 75 -20 92 -32 381 -52 559 -39 173 13 205
17 205 30 0 20 -109 57 -199 67 -51 6 -98 15 -105 21 -6 5 -33 16 -61 24 -27
8 -63 22 -80 31 -16 9 -41 16 -54 16 -13 0 -65 20 -117 45 -51 25 -99 45 -106
45 -7 0 -30 11 -50 25 -20 14 -41 25 -46 25 -5 0 -15 6 -21 14 -7 8 -26 18
-42 21 -16 4 -51 24 -78 45 -27 22 -61 42 -76 46 -14 4 -32 15 -38 25 -7 11
-17 19 -24 19 -6 0 -25 11 -41 25 -17 14 -35 25 -41 25 -6 0 -31 20 -57 45
-25 25 -51 45 -59 45 -8 0 -33 20 -56 45 -23 25 -46 45 -51 45 -4 0 -28 19
-52 43 -24 23 -49 47 -56 53 -7 6 -28 27 -48 47 -19 19 -39 38 -43 43 -33 32
-108 113 -124 135 -11 14 -30 31 -43 38 -12 6 -22 19 -22 27 0 9 -20 35 -45
60 -25 24 -45 50 -45 58 0 9 -11 23 -25 32 -18 12 -25 25 -25 49 0 33 13 45
48 45 9 0 40 11 67 25 28 13 56 25 64 25 7 0 28 8 45 19 17 10 51 21 76 24 25
4 64 15 87 27 23 11 49 20 58 20 8 0 32 9 52 20 21 11 54 20 73 20 19 1 53 8
75 16 22 8 63 21 90 28 28 7 60 18 73 25 12 6 61 16 107 22 47 5 99 15 117 23
18 8 65 20 103 26 39 7 75 16 80 21 6 4 66 13 135 19 69 6 136 15 150 20 14 6
111 20 215 32 259 30 758 37 950 13 189 -23 264 -36 270 -45 3 -5 36 -12 73
-15 37 -4 86 -16 109 -26 23 -11 47 -19 52 -19 6 0 34 -11 63 -24 29 -13 72
-27 95 -31 23 -3 44 -12 46 -19 3 -7 23 -18 46 -25 23 -6 41 -16 41 -21 0 -5
19 -14 42 -21 23 -6 47 -17 53 -25 11 -16 39 -33 100 -62 22 -11 57 -36 78
-56 21 -20 45 -36 52 -36 8 0 34 -19 59 -42 25 -24 68 -63 96 -88 27 -25 76
-72 108 -104 31 -33 76 -79 100 -103 23 -23 42 -47 42 -52 0 -6 20 -33 45 -61
25 -28 45 -57 45 -65 0 -8 8 -20 18 -27 10 -7 24 -27 31 -45 7 -17 19 -34 27
-37 8 -3 14 -14 14 -23 0 -10 20 -50 45 -88 25 -39 45 -77 45 -85 0 -8 14 -42
30 -75 16 -33 30 -65 30 -71 0 -6 7 -17 15 -24 8 -7 15 -28 15 -46 0 -19 11
-62 25 -96 14 -34 25 -70 25 -80 0 -11 7 -32 15 -48 9 -17 19 -81 25 -152 5
-68 15 -174 22 -235 9 -88 9 -135 0 -215 -7 -57 -17 -161 -23 -232 -6 -82 -15
-136 -24 -150 -8 -11 -15 -31 -15 -43 0 -12 -11 -52 -25 -89 -14 -36 -25 -78
-25 -93 0 -14 -9 -39 -20 -56 -11 -16 -20 -37 -20 -46 0 -9 -9 -27 -19 -41
-11 -13 -24 -43 -31 -67 -11 -43 -50 -114 -69 -125 -5 -4 -13 -21 -16 -39 -4
-17 -14 -39 -21 -47 -23 -24 -62 -83 -74 -109 -6 -14 -29 -44 -50 -68 -22 -23
-40 -49 -40 -57 0 -9 -10 -20 -21 -27 -28 -14 -68 -60 -69 -76 0 -7 -4 -13 -9
-13 -5 0 -24 -16 -42 -35 -19 -19 -40 -40 -46 -47 -7 -7 -36 -33 -64 -58 -28
-25 -71 -64 -97 -87 -25 -24 -54 -43 -64 -43 -10 0 -23 -9 -30 -20 -7 -12 -49
-42 -93 -67 -44 -25 -93 -57 -108 -69 -16 -13 -39 -24 -52 -24 -13 0 -27 -5
-31 -11 -3 -6 -25 -19 -49 -29 -24 -10 -46 -23 -49 -28 -4 -6 -32 -16 -63 -22
-31 -7 -70 -21 -87 -31 -17 -10 -40 -19 -51 -19 -11 0 -31 -7 -43 -16 -12 -8
-60 -19 -109 -24 -47 -5 -89 -13 -92 -18 -6 -10 -60 -22 -181 -43 l-75 -13 50
-7 c70 -10 261 -9 315 1 25 5 88 16 140 24 52 9 133 25 180 35 47 11 111 22
143 25 32 2 64 9 70 14 7 5 43 17 82 26 38 10 74 21 80 26 6 5 40 14 75 19 36
6 83 20 105 31 21 11 48 20 59 20 11 0 27 7 36 15 9 8 39 19 66 24 27 6 85 28
129 50 44 22 87 41 95 41 15 0 22 3 120 57 30 17 66 34 79 38 14 4 46 23 72
41 26 18 63 40 81 49 49 23 71 37 96 63 12 12 31 22 42 22 11 0 26 10 35 23 8
12 35 36 60 51 25 16 45 32 45 35 0 4 12 14 28 23 43 26 177 163 245 251 66
85 69 89 86 127 6 14 27 50 46 80 19 30 34 65 35 78 0 13 9 40 19 60 39 74 62
138 71 194 5 31 13 64 19 75 24 41 58 199 80 368 6 44 16 107 23 140 8 40 12
166 12 370 1 261 -2 322 -17 385 -9 41 -21 118 -27 170 -5 52 -19 122 -30 154
-11 33 -20 66 -20 75 0 9 -6 26 -14 37 -8 11 -19 48 -26 82 -6 35 -19 77 -29
95 -11 17 -22 43 -26 57 -4 13 -14 30 -21 38 -8 7 -14 26 -14 41 0 15 -11 42
-25 61 -14 19 -25 39 -25 45 0 7 -9 20 -20 30 -11 10 -20 28 -20 41 0 12 -10
35 -22 51 -24 30 -29 38 -76 118 -17 28 -41 60 -56 72 -14 13 -26 30 -26 39 0
9 -20 37 -45 62 -25 25 -45 49 -45 54 0 4 -65 72 -144 151 -186 184 -233 227
-247 227 -6 0 -31 20 -56 45 -24 25 -53 45 -64 45 -11 0 -22 6 -25 14 -6 15
-96 76 -112 76 -5 0 -36 20 -68 45 -31 25 -65 45 -75 45 -10 0 -21 5 -25 11
-3 6 -26 19 -50 29 -24 11 -44 24 -44 29 0 6 -17 13 -37 17 -21 4 -49 15 -62
25 -13 11 -29 19 -36 19 -7 0 -24 9 -38 20 -14 11 -40 23 -59 27 -18 3 -75 26
-126 50 -51 24 -105 43 -119 43 -14 0 -37 7 -51 15 -47 25 -205 73 -266 79
-32 4 -68 12 -80 18 -11 6 -59 18 -105 25 -47 7 -90 18 -96 23 -7 6 -90 14
-186 20 -96 6 -208 15 -249 21 -128 18 -717 -2 -930 -31 -122 -17 -305 -50
-330 -60 -14 -6 -61 -14 -105 -19 -79 -8 -208 -40 -273 -67 -19 -8 -61 -17
-95 -20 -34 -4 -71 -12 -82 -18 -11 -7 -49 -21 -85 -30 -36 -10 -70 -22 -77
-27 -6 -6 -37 -14 -70 -19 -32 -5 -77 -19 -100 -30 -23 -11 -48 -20 -55 -20
-7 0 -26 -9 -43 -20 -16 -11 -42 -20 -56 -20 -24 0 -70 -17 -184 -70 -22 -10
-59 -21 -82 -25 -23 -3 -44 -12 -46 -19 -3 -7 -23 -18 -45 -24 -22 -7 -45 -19
-52 -27 -7 -8 -27 -15 -46 -15 -18 0 -36 -5 -40 -11 -3 -6 -25 -19 -48 -30
-22 -11 -52 -26 -66 -34 -14 -8 -33 -15 -43 -15 -17 0 -194 140 -210 166 -4 8
-14 14 -21 14 -7 0 -32 20 -55 45 -23 25 -48 45 -56 45 -8 0 -34 20 -58 45
-25 25 -52 45 -61 45 -9 0 -16 4 -16 9 0 6 -40 40 -89 76 -49 36 -92 73 -95
80 -3 8 -14 15 -25 15 -11 0 -40 20 -65 45 -26 25 -53 45 -60 45 -8 0 -21 8
-28 18 -11 15 -41 36 -133 95 -10 6 -30 24 -44 40 -14 15 -33 27 -43 27 -9 0
-34 16 -55 36 -21 20 -50 42 -65 50 -40 21 -99 62 -112 78 -6 7 -23 16 -37 20
-14 3 -43 21 -64 41 -21 19 -47 38 -58 41 -24 8 -100 59 -117 79 -7 8 -23 15
-36 15 -13 0 -32 10 -43 21 -22 23 -44 38 -106 68 -22 10 -62 35 -90 55 -27
20 -57 36 -66 36 -9 0 -28 9 -42 20 -14 11 -29 20 -35 20 -5 0 -17 9 -26 19
-10 11 -32 23 -48 26 -17 4 -46 18 -65 31 -20 13 -41 24 -48 24 -7 0 -15 7
-18 14 -3 8 -23 18 -44 22 -21 4 -49 15 -62 25 -13 11 -29 19 -36 19 -7 0 -24
9 -38 20 -14 11 -40 23 -59 26 -31 6 -128 47 -190 80 -14 8 -42 14 -61 14 -20
0 -42 6 -49 13 -21 20 -198 74 -268 82 -36 3 -83 12 -105 20 -23 7 -95 16
-160 20 -66 4 -147 13 -180 22 -113 28 -771 40 -1260 23z"/>
<path d="M16228 22853 c-11 -3 -18 -14 -19 -31 -4 -214 -8 -207 115 -203 79 2
84 1 89 -20 4 -15 -3 -38 -21 -69 -41 -66 -59 -110 -67 -157 -3 -23 -13 -47
-21 -54 -8 -6 -14 -21 -14 -33 0 -11 -10 -41 -21 -66 -11 -25 -25 -81 -30
-126 -5 -45 -15 -100 -23 -122 -8 -23 -18 -80 -22 -128 -5 -67 -12 -92 -28
-111 l-21 -24 -79 21 c-44 12 -86 28 -94 36 -7 8 -24 14 -37 14 -13 0 -41 17
-66 40 -24 22 -51 43 -61 46 -10 3 -18 9 -18 14 0 5 -20 29 -44 53 -24 25 -47
58 -51 75 -3 17 -12 33 -20 36 -8 3 -19 23 -26 45 -7 23 -16 41 -20 41 -4 0
-12 14 -18 30 l-10 30 -823 0 c-729 0 -826 -2 -846 -16 -22 -15 -22 -17 -22
-307 l0 -293 29 -17 c27 -16 85 -17 748 -17 l718 1 37 -43 c97 -115 227 -230
298 -266 14 -7 43 -26 65 -42 22 -16 58 -35 80 -41 22 -6 58 -19 81 -30 22
-10 46 -19 53 -19 7 0 34 -7 60 -14 25 -8 64 -19 85 -23 34 -7 41 -13 53 -47
7 -22 18 -78 23 -125 5 -47 16 -99 23 -116 24 -51 58 -158 66 -205 4 -25 15
-58 23 -75 8 -16 28 -54 43 -83 18 -36 25 -61 21 -78 -7 -25 -8 -25 -92 -23
-116 4 -118 2 -115 -143 3 -121 9 -143 43 -154 28 -9 1498 -8 1628 1 110 8
146 21 192 67 71 72 154 107 303 128 44 6 132 25 195 42 63 16 216 48 340 70
l225 41 1295 6 c712 4 1302 10 1311 14 21 11 187 -19 241 -42 47 -20 87 -56
119 -107 29 -47 29 -161 -1 -209 l-21 -34 37 -7 c21 -4 474 -4 1008 0 534 4
1550 7 2259 8 1178 0 1289 2 1307 17 17 14 20 30 21 141 2 161 -2 165 -122
162 -46 -1 -90 2 -98 7 -19 12 -5 61 55 186 23 50 45 111 49 138 4 26 11 47
16 47 4 0 13 19 19 43 6 23 17 54 25 68 8 14 18 61 24 105 18 138 35 163 114
164 18 1 43 7 57 15 14 8 36 14 50 15 14 0 44 9 65 20 22 11 58 25 80 31 21 6
64 28 94 50 30 21 60 39 67 39 7 0 17 6 21 13 4 8 21 22 37 33 29 18 99 78
120 101 6 7 35 39 64 70 28 31 52 60 52 64 0 4 10 9 23 13 12 3 337 6 723 6
488 0 710 3 732 11 l32 11 0 308 0 308 -22 6 c-13 3 -393 6 -846 6 -775 0
-823 -1 -828 -17 -12 -36 -56 -123 -69 -133 -7 -6 -16 -23 -20 -37 -13 -52
-192 -222 -234 -223 -14 0 -32 -7 -41 -15 -9 -8 -52 -24 -95 -36 l-79 -20 -17
23 c-10 13 -22 58 -29 108 -6 47 -18 103 -26 125 -8 23 -18 72 -23 110 -5 40
-27 113 -50 170 -22 55 -41 109 -41 121 0 12 -9 31 -19 43 -11 13 -23 36 -26
52 -4 16 -13 33 -21 37 -8 5 -21 31 -28 59 -17 63 -14 65 98 62 114 -3 122 6
118 133 -3 89 -5 96 -25 102 -26 7 -10433 6 -10459 -1z m5620 -359 c19 -5 22
-13 22 -54 0 -45 -2 -49 -27 -54 -16 -3 -51 -6 -80 -5 -94 3 -133 -48 -133
-173 l0 -58 -55 0 -55 0 6 93 c8 120 33 175 107 234 24 19 165 30 215 17z
m-5112 -185 c16 -6 43 -30 60 -53 35 -47 35 -69 1 -186 -8 -30 -18 -101 -21
-157 -3 -56 -11 -114 -18 -130 -15 -39 -23 -460 -9 -538 6 -33 16 -103 21
-155 14 -127 26 -195 44 -257 18 -62 10 -98 -29 -137 -29 -29 -94 -47 -135
-36 -14 4 -39 20 -56 36 -44 41 -73 164 -85 364 -5 85 -14 182 -19 215 -13 79
-13 342 0 419 6 34 14 133 19 221 6 99 15 177 25 204 9 24 16 56 16 71 0 33
60 112 92 122 36 10 62 9 94 -3z m5313 -193 c19 -23 2 -174 -24 -216 -48 -75
-126 -110 -244 -110 l-71 0 0 54 c0 70 10 78 104 74 70 -3 78 -1 101 23 20 20
27 39 31 85 8 82 20 104 59 104 18 0 38 -6 44 -14z"/>
<path d="M17865 18964 c-11 -2 -45 -9 -75 -15 -87 -17 -173 -63 -223 -119 -60
-67 -82 -131 -82 -240 0 -146 56 -228 201 -297 174 -83 457 -82 631 3 66 32
136 109 160 177 27 79 24 227 -6 289 -48 99 -142 167 -270 194 -60 12 -285 18
-336 8z"/>
<path d="M9425 18821 c-160 -6 -173 -8 -227 -34 -66 -33 -111 -87 -134 -162
-29 -99 -37 -319 -38 -1050 0 -729 9 -1012 37 -1094 21 -60 64 -108 123 -137
47 -23 73 -28 197 -35 198 -11 845 -11 946 1 90 10 132 29 165 73 20 26 21 44
26 259 5 253 7 260 62 239 20 -7 71 -76 191 -258 164 -247 188 -275 261 -303
39 -14 530 -25 730 -15 181 8 196 15 196 84 0 47 -3 52 -298 381 -111 124
-202 227 -202 230 0 3 23 19 51 35 118 69 244 220 305 365 53 128 69 215 68
380 -1 121 -6 161 -27 242 -81 306 -311 590 -575 710 -37 17 -110 42 -162 55
-87 23 -121 26 -415 33 -352 9 -1014 10 -1280 1z m1295 -662 c141 -22 256
-106 314 -229 40 -84 48 -207 20 -296 -25 -80 -92 -167 -166 -215 -76 -48
-139 -68 -244 -76 -74 -5 -83 -4 -103 16 -20 20 -21 29 -23 339 -4 434 -4 422
27 450 30 25 72 28 175 11z"/>
<path d="M26130 18801 c-19 -10 -45 -32 -57 -50 -48 -70 -48 -77 -48 -1201 l0
-1055 24 -53 c13 -28 38 -65 56 -81 57 -49 86 -54 324 -48 239 5 297 16 354
67 l32 28 5 269 c4 190 9 274 18 290 19 34 46 45 77 33 47 -18 326 -175 725
-408 212 -124 414 -236 450 -251 l65 -26 363 -3 c352 -3 365 -3 407 18 91 44
122 116 135 314 26 389 18 1858 -10 2034 -6 31 -18 68 -28 82 -39 52 -56 55
-348 58 l-271 3 -33 -28 c-58 -48 -60 -63 -60 -381 0 -278 -1 -290 -21 -316
-15 -19 -30 -26 -55 -26 -36 0 -38 1 -899 447 -269 140 -522 265 -562 279 -69
23 -82 24 -340 24 -242 0 -272 -2 -303 -19z"/>
<path d="M32920 18644 c-73 -19 -145 -70 -390 -275 -238 -199 -281 -229 -372
-259 -112 -36 -134 -77 -126 -243 7 -144 36 -178 165 -193 36 -4 68 -13 75
-22 10 -11 14 -106 19 -371 6 -403 13 -443 91 -593 72 -139 194 -234 384 -297
289 -96 828 -101 1215 -10 160 37 195 92 193 299 -1 134 -12 192 -45 234 -28
35 -58 34 -187 -11 -96 -33 -118 -37 -208 -38 -92 0 -105 2 -159 30 -64 33
-122 98 -145 163 -9 25 -15 115 -17 282 -5 267 1 316 40 325 12 2 123 6 247 7
257 3 284 10 316 76 25 51 26 239 1 295 -28 64 -55 70 -337 77 l-244 5 -13 25
c-9 18 -13 85 -13 227 l0 203 -27 30 c-21 22 -42 33 -82 40 -81 15 -316 11
-381 -6z"/>
<path d="M20680 18179 c-186 -23 -364 -86 -502 -179 -47 -32 -89 -56 -92 -52
-3 3 -6 14 -6 25 0 43 -48 105 -102 131 l-53 26 -385 2 c-380 3 -386 3 -426
-19 -22 -12 -54 -37 -71 -56 l-30 -34 -6 -198 c-10 -284 -8 -1791 2 -1912 11
-127 30 -169 91 -200 44 -23 49 -23 450 -23 427 0 466 4 505 45 45 49 59 158
71 543 6 165 10 215 21 219 7 3 41 -21 76 -54 75 -70 178 -126 284 -154 102
-28 310 -30 428 -5 396 85 603 341 645 797 25 268 -24 575 -117 739 -97 170
-257 294 -441 341 -91 23 -239 31 -342 18z m-231 -647 c41 -19 85 -85 103
-155 18 -73 15 -297 -5 -360 -35 -109 -95 -157 -194 -157 -76 0 -137 30 -178
89 l-30 43 0 211 c0 237 3 252 71 303 67 52 156 62 233 26z"/>
<path d="M13320 18169 c-300 -29 -578 -144 -789 -328 -121 -104 -214 -260
-258 -430 -31 -119 -36 -313 -10 -428 76 -345 368 -597 802 -693 283 -62 798
-44 1130 40 200 50 329 111 371 175 25 39 31 160 10 223 -30 90 -110 147 -178
127 -12 -4 -75 -31 -138 -60 -141 -66 -231 -91 -369 -106 -265 -27 -401 33
-451 198 -19 65 -43 213 -35 221 2 2 57 -4 122 -13 160 -23 474 -31 598 -16
322 41 478 161 492 379 15 227 -123 471 -322 574 -232 119 -609 172 -975 137z
m427 -425 c44 -32 73 -99 73 -169 0 -71 -14 -102 -58 -132 -52 -34 -127 -46
-245 -36 l-102 8 2 65 c4 125 60 235 137 271 54 26 154 22 193 -7z"/>
<path d="M22920 18169 c-300 -29 -578 -144 -789 -328 -121 -104 -214 -260
-258 -430 -31 -119 -36 -313 -10 -428 76 -345 368 -597 802 -693 283 -62 798
-44 1130 40 200 50 329 111 371 175 25 39 31 160 10 223 -30 90 -110 147 -178
127 -12 -4 -75 -31 -138 -60 -141 -66 -231 -91 -369 -106 -265 -27 -401 33
-451 198 -19 65 -43 213 -35 221 2 2 57 -4 122 -13 160 -23 474 -31 598 -16
322 41 478 161 492 379 15 227 -123 471 -322 574 -232 119 -609 172 -975 137z
m427 -425 c44 -32 73 -99 73 -169 0 -71 -14 -102 -58 -131 -51 -35 -123 -46
-246 -38 l-109 7 7 67 c12 135 64 236 140 271 54 26 154 22 193 -7z"/>
<path d="M30480 18169 c-300 -29 -578 -144 -789 -328 -121 -104 -214 -260
-258 -430 -31 -119 -36 -313 -10 -428 76 -345 368 -597 802 -693 283 -62 798
-44 1130 40 200 50 329 111 371 175 25 39 31 160 10 223 -30 90 -110 147 -178
127 -12 -4 -75 -31 -138 -60 -141 -66 -231 -91 -369 -106 -265 -27 -401 33
-451 198 -19 65 -43 213 -35 221 2 2 57 -4 122 -13 160 -23 474 -31 598 -16
322 41 478 161 492 379 15 227 -123 471 -322 574 -232 119 -609 172 -975 137z
m427 -425 c44 -32 73 -99 73 -169 0 -71 -14 -102 -58 -131 -51 -35 -123 -46
-246 -38 l-109 7 7 67 c12 135 64 236 140 271 54 26 154 22 193 -7z"/>
<path d="M16051 18160 c-249 -24 -479 -87 -661 -181 -214 -109 -360 -298 -422
-546 -19 -75 -23 -113 -22 -263 1 -188 12 -261 59 -386 56 -149 176 -294 309
-373 115 -68 330 -136 521 -163 57 -8 196 -13 380 -13 279 0 295 1 420 28 163
35 314 79 356 103 17 11 41 31 51 45 39 51 49 283 17 388 -7 24 -26 56 -42 72
-38 39 -87 38 -248 -3 -158 -41 -299 -45 -390 -9 -152 59 -239 219 -226 416
11 180 104 306 245 336 80 16 175 6 336 -35 76 -20 157 -36 180 -36 83 1 117
58 124 210 7 162 -19 251 -88 301 -29 22 -215 72 -350 94 -114 19 -418 27
-549 15z"/>
<path d="M17560 18119 c-61 -12 -104 -59 -119 -130 -6 -30 -16 -99 -21 -154
-13 -133 -13 -1051 0 -1235 20 -286 47 -300 575 -300 398 0 467 14 520 104 41
69 47 211 42 896 -3 495 -7 606 -20 662 -21 91 -40 122 -84 144 -35 18 -68 19
-443 21 -223 1 -425 -3 -450 -8z"/>
<path d="M28370 14500 c-141 -48 -186 -220 -83 -317 92 -87 336 -96 441 -16
125 95 79 299 -77 343 -62 17 -219 12 -281 -10z"/>
<path d="M33661 14509 c-172 -20 -307 -77 -385 -162 -58 -63 -86 -132 -98
-244 -12 -107 -19 -123 -53 -123 -38 0 -59 -35 -63 -103 -4 -79 19 -130 61
-135 19 -2 31 -11 38 -28 5 -14 9 -140 9 -279 0 -141 5 -276 11 -304 18 -87
14 -86 310 -86 256 0 259 0 281 23 23 22 23 25 26 334 2 205 7 316 14 325 7 9
45 13 135 13 118 0 125 1 148 25 22 21 25 33 25 93 0 55 -4 75 -21 96 -20 25
-23 26 -139 26 -99 0 -121 3 -140 18 -20 16 -22 24 -16 64 9 59 41 108 86 130
47 24 138 23 220 -2 132 -40 155 -24 155 115 0 79 -3 98 -21 122 -55 73 -326
112 -583 82z"/>
<path d="M20965 14478 c-18 -16 -29 -39 -35 -78 -16 -88 -24 -889 -11 -1103 6
-103 15 -196 21 -206 5 -10 26 -27 47 -37 34 -17 63 -19 248 -19 194 0 213 2
245 21 67 39 65 13 65 699 0 662 -2 698 -49 730 -16 12 -67 15 -263 15 -237 0
-242 0 -268 -22z"/>
<path d="M27397 14489 c-39 -23 -47 -68 -47 -274 0 -158 -3 -197 -14 -201 -8
-3 -37 7 -66 21 -65 33 -164 55 -251 55 -70 0 -196 -28 -251 -56 -114 -57
-201 -160 -239 -283 -40 -131 -35 -351 12 -476 64 -172 217 -275 409 -275 124
0 231 38 348 124 34 25 64 46 67 46 3 0 5 -9 5 -20 0 -34 23 -71 54 -88 47
-26 410 -31 473 -7 78 30 74 -7 71 723 -3 695 -3 687 -55 711 -32 15 -491 15
-516 0z m-120 -772 c35 -32 36 -37 41 -115 9 -156 -19 -222 -101 -237 -50 -10
-88 11 -115 65 -21 40 -23 56 -20 140 5 135 34 178 121 179 29 1 45 -6 74 -32z"/>
<path d="M9571 14439 c-109 -35 -118 -48 -485 -698 -181 -320 -331 -593 -334
-606 -7 -41 6 -72 37 -85 19 -8 73 -11 159 -8 158 4 155 2 223 145 38 82 53
105 76 114 17 6 112 9 260 7 279 -4 266 2 335 -141 41 -84 53 -100 82 -112 52
-22 750 -22 801 0 44 18 60 55 47 106 -13 51 -689 1192 -731 1235 -51 50 -109
64 -270 63 -108 0 -149 -4 -200 -20z m-38 -571 c20 -16 107 -210 107 -240 0
-12 -7 -30 -17 -40 -14 -16 -33 -18 -138 -18 -128 0 -145 5 -145 47 0 25 92
216 118 246 18 20 51 22 75 5z"/>
<path d="M24378 14079 c-94 -10 -200 -46 -268 -90 l-57 -37 -14 31 c-8 17 -27
40 -42 51 -26 19 -45 21 -239 24 -224 4 -247 0 -290 -45 l-23 -25 0 -606 c0
-685 -3 -661 73 -681 45 -13 412 -14 466 -1 66 15 74 41 82 260 3 91 8 171 10
178 3 9 20 0 51 -27 92 -77 208 -107 345 -90 124 15 198 48 276 123 47 44 73
88 104 176 28 77 36 305 14 408 -54 255 -228 380 -488 351z m-115 -369 c35
-28 50 -80 50 -170 0 -115 -29 -178 -91 -193 -36 -9 -89 11 -116 44 -25 29
-26 36 -26 151 l0 120 34 34 c29 29 41 34 79 34 29 0 53 -7 70 -20z"/>
<path d="M29576 14079 c-188 -21 -346 -83 -372 -145 -36 -86 4 -184 76 -184
11 0 51 15 88 34 80 40 149 56 240 56 114 0 160 -39 176 -148 l6 -44 -67 9
c-187 23 -396 2 -496 -49 -62 -31 -132 -103 -158 -161 -33 -72 -34 -203 -2
-262 59 -110 188 -174 349 -175 129 0 235 32 320 96 l41 32 12 -39 c6 -21 20
-43 31 -49 11 -6 127 -10 295 -10 336 0 318 -8 329 139 11 141 -3 535 -21 604
-56 205 -282 310 -663 306 -63 -1 -146 -5 -184 -10z m192 -567 c9 -6 12 -37
10 -118 l-3 -109 -42 -9 c-54 -11 -89 -2 -124 34 -24 24 -29 37 -29 80 0 62
11 85 53 110 33 20 111 27 135 12z"/>
<path d="M11828 14061 c-66 -21 -134 -59 -182 -102 -35 -31 -46 -26 -46 21 0
11 -11 32 -24 47 l-24 28 -234 3 c-259 4 -297 -2 -317 -45 -24 -53 -33 -226
-29 -548 5 -347 7 -359 61 -399 27 -20 41 -21 261 -21 330 0 311 -21 322 361
l7 259 33 33 c26 26 40 32 74 32 52 0 76 -13 95 -50 12 -24 15 -79 15 -313 l0
-284 26 -24 26 -24 246 3 c141 2 258 7 274 13 47 19 50 41 46 395 -3 315 -5
331 -27 386 -45 115 -164 209 -299 237 -83 17 -238 13 -304 -8z"/>
<path d="M13980 14069 c-30 -5 -91 -22 -137 -38 -255 -88 -403 -274 -403 -506
0 -250 175 -436 467 -497 86 -18 121 -19 283 -14 261 8 448 49 522 115 40 36
47 92 20 155 -35 79 -46 79 -232 0 -91 -38 -244 -46 -313 -16 -56 25 -87 78
-95 165 -5 55 -4 60 13 53 10 -3 76 -12 146 -18 221 -20 378 11 455 88 49 48
59 84 52 178 -13 159 -122 267 -319 317 -96 24 -365 35 -459 18z m309 -243
c14 -15 25 -42 28 -69 4 -36 1 -48 -20 -73 -24 -27 -31 -29 -111 -33 -101 -4
-106 1 -87 85 18 77 57 114 120 114 37 0 52 -5 70 -24z"/>
<path d="M15818 14061 c-66 -21 -134 -59 -182 -102 -35 -31 -46 -26 -46 21 0
11 -11 32 -24 47 l-24 28 -234 3 c-259 4 -297 -2 -317 -45 -24 -53 -33 -226
-29 -548 5 -347 7 -359 61 -399 27 -20 41 -21 261 -21 208 0 235 2 260 18 48
32 54 62 62 342 l7 260 33 33 c26 26 40 32 74 32 52 0 76 -13 95 -50 12 -24
15 -79 15 -313 l0 -284 26 -24 26 -24 246 3 c141 2 258 7 274 13 47 19 50 41
46 395 -3 319 -4 331 -27 389 -45 111 -165 206 -299 234 -82 17 -237 13 -304
-8z"/>
<path d="M17279 14069 c-209 -17 -396 -85 -488 -177 -100 -100 -147 -240 -138
-407 16 -278 162 -425 474 -475 105 -17 375 -16 463 3 122 25 189 47 218 72
25 22 27 30 30 112 5 106 -12 159 -53 169 -14 3 -66 -3 -118 -15 -142 -33
-209 -25 -272 30 -104 92 -87 312 30 369 54 26 102 25 225 -5 116 -28 142 -24
159 26 12 35 15 119 5 168 -9 43 -44 78 -95 91 -146 40 -288 52 -440 39z"/>
<path d="M20169 14069 c-209 -17 -396 -85 -488 -177 -100 -100 -147 -240 -138
-407 16 -278 162 -425 474 -475 105 -17 375 -16 463 3 122 25 189 47 218 72
25 22 27 30 30 112 5 106 -12 159 -53 169 -14 3 -66 -3 -118 -15 -142 -33
-209 -25 -272 30 -104 92 -87 312 30 369 54 26 102 25 225 -5 116 -28 142 -24
159 26 12 35 15 119 5 168 -9 43 -44 78 -95 91 -146 40 -288 52 -440 39z"/>
<path d="M22275 14066 c-113 -19 -160 -33 -242 -72 -219 -104 -323 -331 -269
-585 38 -177 150 -294 343 -358 127 -43 237 -54 448 -48 136 4 201 11 265 27
278 69 420 240 420 505 0 156 -46 271 -144 363 -79 73 -162 117 -283 149 -83
21 -125 26 -278 29 -120 2 -207 -1 -260 -10z m287 -335 c34 -27 48 -83 48
-191 0 -156 -33 -220 -115 -220 -79 0 -115 70 -115 220 0 151 32 210 113 210
29 0 53 -7 69 -19z"/>
<path d="M25560 14069 c-30 -5 -91 -22 -137 -38 -255 -88 -403 -274 -403 -506
0 -250 175 -436 467 -497 86 -18 121 -19 283 -14 261 8 448 49 522 115 40 36
47 92 20 155 -35 79 -46 79 -232 0 -91 -38 -244 -46 -313 -16 -56 25 -87 78
-95 165 -5 55 -4 60 13 53 10 -3 76 -12 146 -18 221 -20 378 11 455 88 49 48
59 84 52 178 -13 159 -122 267 -319 317 -96 24 -365 35 -459 18z m309 -243
c14 -15 25 -42 28 -69 4 -36 1 -48 -20 -73 -24 -27 -31 -29 -111 -33 -101 -4
-106 1 -87 85 18 77 57 114 120 114 37 0 52 -5 70 -24z"/>
<path d="M31975 14066 c-113 -19 -160 -33 -242 -72 -180 -86 -283 -252 -283
-459 0 -295 188 -480 535 -526 135 -17 427 -6 535 21 278 69 420 240 420 505
0 156 -44 267 -142 362 -77 73 -160 117 -287 150 -81 21 -124 26 -276 29 -120
2 -207 -1 -260 -10z m287 -335 c34 -27 48 -83 48 -191 0 -156 -33 -220 -115
-220 -79 0 -115 70 -115 220 0 151 32 210 113 210 29 0 53 -7 69 -19z"/>
<path d="M17982 14050 c-28 -12 -45 -54 -36 -94 10 -50 295 -584 424 -797 28
-46 53 -94 57 -107 13 -52 -51 -79 -204 -88 -137 -7 -142 -9 -160 -52 -19 -45
-13 -138 11 -174 23 -36 55 -47 164 -58 294 -31 491 55 639 278 64 96 256 474
417 820 106 226 108 233 92 257 -16 24 -19 25 -140 25 -69 0 -132 -3 -141 -7
-10 -3 -64 -101 -126 -230 -59 -123 -115 -226 -124 -229 -8 -4 -22 -1 -30 6
-8 6 -58 95 -112 197 -108 205 -140 247 -199 256 -59 10 -506 7 -532 -3z"/>
<path d="M28243 14035 c-42 -30 -48 -92 -48 -510 0 -438 0 -435 70 -470 36
-18 61 -20 245 -20 225 0 266 7 296 53 15 22 19 62 27 230 9 225 -4 628 -22
678 -7 17 -23 36 -37 43 -16 7 -107 11 -267 11 -198 0 -246 -3 -264 -15z"/>
<path d="M21580 12100 c-141 -48 -186 -220 -83 -317 92 -87 336 -96 441 -16
125 95 79 299 -77 343 -62 17 -219 12 -281 -10z"/>
<path d="M23228 11679 c-94 -10 -200 -46 -268 -90 l-57 -37 -14 31 c-8 17 -27
40 -42 51 -26 19 -45 21 -239 24 -224 4 -247 0 -290 -45 l-23 -25 0 -606 c0
-685 -3 -661 73 -681 45 -13 412 -14 466 -1 66 15 74 41 82 260 3 91 8 171 10
178 3 9 20 0 51 -27 92 -77 208 -107 345 -90 124 15 198 48 276 123 47 44 73
88 104 176 28 77 36 305 14 408 -54 255 -228 380 -488 351z m-115 -369 c35
-28 50 -80 50 -170 0 -115 -29 -178 -91 -193 -36 -9 -89 11 -116 44 -25 29
-26 36 -26 151 l0 120 34 34 c29 29 41 34 79 34 29 0 53 -7 70 -20z"/>
<path d="M18147 11669 c-83 -20 -176 -87 -229 -167 -15 -21 -15 -20 -21 39 -4
49 -11 67 -31 88 l-26 26 -233 3 c-258 4 -296 -2 -316 -45 -24 -53 -33 -226
-29 -548 5 -347 7 -359 61 -399 27 -20 41 -21 261 -21 327 0 310 -18 320 335
8 265 9 269 83 302 55 24 84 20 177 -27 123 -62 195 -42 250 69 30 62 44 155
32 220 -8 44 -59 104 -103 122 -36 15 -137 17 -196 3z"/>
<path d="M19070 11669 c-30 -5 -91 -22 -137 -38 -255 -88 -403 -274 -403 -506
0 -250 175 -436 467 -497 86 -18 121 -19 283 -14 261 8 448 49 522 115 40 36
47 92 20 155 -35 79 -46 79 -232 0 -91 -38 -244 -46 -313 -16 -56 25 -87 78
-95 165 -5 55 -4 60 13 53 10 -3 76 -12 146 -18 221 -20 378 11 455 88 49 48
59 84 52 178 -13 159 -122 267 -319 317 -96 24 -365 35 -459 18z m309 -243
c14 -15 25 -42 28 -69 4 -36 1 -48 -20 -73 -24 -27 -31 -29 -111 -33 -101 -4
-106 1 -87 85 18 77 57 114 120 114 37 0 52 -5 70 -24z"/>
<path d="M20659 11669 c-209 -17 -396 -85 -488 -177 -100 -100 -147 -240 -138
-407 16 -278 162 -425 474 -475 105 -17 375 -16 463 3 122 25 189 47 218 72
25 22 27 30 30 112 5 106 -12 159 -53 169 -14 3 -66 -3 -118 -15 -142 -33
-209 -25 -272 30 -104 92 -87 312 30 369 54 26 102 25 225 -5 116 -28 142 -24
159 26 12 35 15 119 5 168 -9 43 -44 78 -95 91 -146 40 -288 52 -440 39z"/>
<path d="M24410 11669 c-30 -5 -91 -22 -137 -38 -255 -88 -403 -274 -403 -506
0 -250 175 -436 467 -497 86 -18 121 -19 283 -14 261 8 448 49 522 115 40 36
47 92 20 155 -35 79 -46 79 -232 0 -91 -38 -244 -46 -313 -16 -56 25 -87 78
-95 165 -5 55 -4 60 13 53 10 -3 76 -12 146 -18 221 -20 378 11 455 88 49 48
59 84 52 178 -13 159 -122 267 -319 317 -96 24 -365 35 -459 18z m309 -243
c14 -15 25 -42 28 -69 4 -36 1 -48 -20 -73 -24 -27 -31 -29 -111 -33 -101 -4
-106 1 -87 85 18 77 57 114 120 114 37 0 52 -5 70 -24z"/>
<path d="M25751 11669 c-146 -22 -265 -83 -320 -163 -63 -91 -76 -228 -31
-317 31 -60 88 -94 231 -139 150 -48 199 -82 199 -142 0 -57 -27 -73 -119 -72
-75 2 -86 5 -254 70 l-47 18 -26 -26 c-32 -31 -43 -102 -24 -148 22 -53 149
-107 320 -136 129 -21 411 -15 505 10 142 40 235 106 276 199 33 74 34 214 2
273 -31 58 -93 108 -166 133 -34 12 -94 33 -133 47 -109 38 -145 85 -109 140
16 25 21 26 79 22 45 -4 82 -16 144 -47 90 -45 112 -46 139 -5 21 33 21 125
-1 159 -20 31 -130 87 -216 110 -78 20 -351 29 -449 14z"/>
<path d="M21453 11635 c-42 -30 -48 -92 -48 -510 0 -438 0 -435 70 -470 36
-18 61 -20 245 -20 225 0 266 7 296 53 15 22 19 62 27 230 9 225 -4 628 -22
678 -7 17 -23 36 -37 43 -16 7 -107 11 -267 11 -198 0 -246 -3 -264 -15z"/>
</g>
</svg>
